<svg width="15687" height="10649" viewBox="0 0 15687 10649" fill="none" xmlns="http://www.w3.org/2000/svg">
<rect x="6417" y="3383.62" width="1647.71" height="126" fill="#3D3D3D"/>
<rect width="1753.01" height="153.823" transform="matrix(-0.00670636 -0.999977 0.999978 -0.00664377 8333.68 4991.4)" fill="#3D3D3D"/>
<path d="M6419.67 3384.78L6664.08 2479L6776.79 2509.48L6532.38 3415.26L6419.67 3384.78Z" fill="#3D3D3D"/>
<path d="M8474.12 3261.97L8301.24 2500.86L8151.62 2535.26L8324.51 3296.37L8474.12 3261.97Z" fill="#3D3D3D"/>
<rect x="6049" y="4915" width="525" height="828" fill="#3D3D3D"/>
<rect x="5110" y="5140" width="585" height="307" fill="#3D3D3D"/>
<rect width="536.529" height="383.521" transform="matrix(0.865408 -0.501067 0.50459 0.863359 5584.71 5180.64)" fill="#3D3D3D"/>
<rect width="468.436" height="484.831" transform="matrix(0.865408 -0.501067 0.50459 0.863359 4709.36 5376.34)" fill="#3D3D3D"/>
<rect width="443.047" height="30.1524" transform="matrix(0.881148 -0.472841 0.476289 0.879289 3129.62 5540.75)" fill="#3D3D3D"/>
<rect width="634.841" height="30.1575" transform="matrix(0.8607 -0.509112 0.512652 0.858597 3129.62 6191.15)" fill="#3D3D3D"/>
<rect width="443.017" height="30.1545" transform="matrix(0.872949 0.487812 0.491302 -0.870989 2981.93 5668.89)" fill="#3D3D3D"/>
<rect width="652.557" height="30.1545" transform="matrix(0.872949 0.487812 0.491302 -0.870989 2953 6332.26)" fill="#3D3D3D"/>
<rect x="2968" y="4438" width="58" height="2226" fill="#3D3D3D"/>
<rect x="2776.83" y="4461.21" width="852.949" height="3173.66" transform="rotate(-90.1946 2776.83 4461.21)" fill="#3D3D3D"/>
<rect x="3520" y="5332" width="3034" height="613" fill="#3D3D3D"/>
<rect x="3519.11" y="5715.87" width="3850.98" height="254" transform="rotate(-0.439413 3519.11 5715.87)" fill="#3D3D3D"/>
<rect x="7025" y="7165" width="5257" height="41" fill="#3D3D3D"/>
<rect x="2969.03" y="6604.68" width="3346.38" height="112.468" transform="rotate(0.788068 2969.03 6604.68)" fill="#3D3D3D"/>
<rect x="6292.34" y="8196" width="5289" height="40" transform="rotate(0.48768 6292.34 8196)" fill="#3D3D3D"/>
<path d="M11581 8241V8589L13311 8589C12756.5 8318.9 11798.5 8241 11581 8241Z" fill="#3D3D3D"/>
<rect x="6292" y="6651" width="26" height="1630" fill="#3D3D3D"/>
<rect x="7025" y="5921" width="362" height="1262" fill="#3D3D3D"/>
<path d="M3269 6481.5C3089.13 6409.45 3508.08 6631.26 3508.08 6631.26L6319 6654C6319 6654 6110.27 6570.9 5893.5 6426.97C5676.73 6283.05 5643.5 6277.5 5643.5 6277.5C5643.5 6277.5 5398.46 6205.58 5197.02 6337.56C4995.59 6469.53 4921.62 6374 4792 6372.5C4662.38 6371 4533.34 6559.54 4467.74 6442.02C4402.15 6324.51 4286.29 6170.27 4062.52 6426.97C3838.75 6683.67 3448.87 6553.55 3269 6481.5Z" fill="#3D3D3D"/>
</svg>
