<svg width="12277" height="8943" viewBox="0 0 12277 8943" fill="none" xmlns="http://www.w3.org/2000/svg">
<path fill-rule="evenodd" clip-rule="evenodd" d="M9272.25 530.23L7761.95 520L7751 2137.01L7887.69 2137.93L9272.25 530.23Z" fill="black"/>
<path fill-rule="evenodd" clip-rule="evenodd" d="M11199 2946.99H11802V4650.99H7666V4704.99H7665V4901.99H12023V6732.99H11891V6747.99H11889V6914.99H11891V6929.99H11895V7218.47H11649V7521.94H11419.9V7728.21H11198V8004.74H10964V8294.44H10745V8520.32H10508V8672.06H10252V8776H5845V8779.79H370V8785H0V8931H5845V8943H12277V6914.99V6732.99V4704.99H12056V2908V2650.99H11815.2L9331.5 0L8688.8 707H9118.21L9318.44 476.891L11195.4 2634H11199V2638.16L11210.2 2650.99H11199V2946.99ZM10558 2668.81H10553V2650.99H7426.71L8226.34 1732H7757.04L6921.63 2650.99H6688V2908V4704.99H5850V5183.99H0V7681.99H178.594V5364.43H5846.42V6732.99H5845V7666.99H6038V6929.99H11314V6914.99H11316V6747.99H11314V6732.99H6043V4901.99H6971V4704.99H6970V2946.99H10553V2908H10558V2668.81Z" fill="black"/>
</svg>
